<?xml version="1.0" encoding="iso-8859-1"?>
<!-- Uploaded to: SVG Repo, www.svgrepo.com, Generator: SVG Repo Mixer Tools -->
<svg fill="#000000" height="800px" width="800px" version="1.1" id="Layer_1" xmlns="http://www.w3.org/2000/svg" xmlns:xlink="http://www.w3.org/1999/xlink" 
	 viewBox="0 0 297.937 297.937" xml:space="preserve">
<g id="XMLID_173_">
	<g>
		<g>
			<path d="M37.247,283.738c0,7.842,6.357,14.199,14.199,14.199s14.199-6.357,14.199-14.199v-71.614H37.247V283.738z"/>
			<path d="M71.774,283.738L71.774,283.738c-0.001,7.842,6.356,14.199,14.198,14.199s14.199-6.357,14.199-14.199v-71.614H71.774
				V283.738z"/>
			<circle cx="68.708" cy="24.522" r="24.522"/>
			<path d="M112.599,74.261c-4.048-6.198-8.509-13.021-16.563-15.941c-2.076,5.859-8.093,22.838-10.163,28.677
				c3.07,25.096,2.761,22.68,2.917,23.591c4.49,0.429,8.673,1.951,12.299,4.302c-2.207-11.397-3.08-19.764-3.08-19.764
				s9.839,16.028,12.714,20.88c-0.629,10.858-1.049,18.093-1.714,29.563h-6.465c0.71-1.982,1.1-4.126,1.1-6.365
				c0-1.437-0.164-2.832-0.466-4.172c-1.81-8.044-8.732-14.034-17.001-14.034c-3.24,0-6.272,0.923-8.873,2.525
				c-2.084-4.393-6.832-7.465-12.364-7.465c-7.453,0-13.495,5.571-13.495,12.444c0,1.078,0.164,2.118,0.443,3.115
				c-4.924,0.587-9.358,1.784-12.956,3.415c-5.769,2.615-9.383,6.35-9.383,10.499c0,0.013,0.002,0.026,0.002,0.038h-1.48
				c-0.196-3.37-1.539-26.536-1.714-29.563c2.972-5.016,13.13-21.529,13.13-21.529l-5.229,31.099
				c2.268-1.052,4.738-1.949,7.37-2.677c1.128-4.293,3.526-8.109,6.784-11.064c0.432-2.514-0.031,1.02,3.049-24.157
				c-3.607-10.18-6.692-18.884-10.405-29.362c-8.061,2.918-12.525,9.744-16.574,15.944c-2.889,4.425-7.225,10.486-20.349,32.843
				c-1.184,2.017-1.743,4.339-1.608,6.674c0.302,5.212,2.17,37.428,2.443,42.146c0.365,6.291,5.58,11.147,11.801,11.147
				c0.231,0,0.463-0.006,0.696-0.02c2.426-0.14,4.638-1.006,6.442-2.369l4.024,34.228c0.179,1.526,1.473,2.677,3.009,2.677h75.535
				c1.537,0,2.83-1.151,3.009-2.677l3.999-34.013c1.746,1.234,3.839,2.021,6.131,2.155c0.233,0.014,0.465,0.02,0.696,0.02
				c6.221,0,11.437-4.857,11.801-11.147c0.272-4.683,2.144-36.971,2.443-42.146c0.135-2.335-0.424-4.657-1.608-6.674
				C119.983,85.018,115.66,78.948,112.599,74.261z"/>
			<path d="M60.592,85.84c6.193,0,10.368,0,15.907,0c7.103-20.044,1.589-4.482,10.27-28.98c-6.961,0-29.47,0-36.447,0
				C52.353,62.591,58.32,79.427,60.592,85.84z"/>
			<path d="M151.194,289.012c0,4.929,3.996,8.924,8.924,8.924h126.389c4.929,0,8.924-3.996,8.924-8.924V184.653H151.194V289.012z
				 M197.465,210.508c6.904-6.904,16.084-10.706,25.847-10.706s18.943,3.802,25.847,10.706c14.252,14.253,14.252,37.443,0,51.695
				c-6.904,6.904-16.084,10.706-25.847,10.706s-18.943-3.802-25.847-10.706C183.213,247.95,183.213,224.76,197.465,210.508z"/>
			<path d="M286.507,141.185H160.118c-4.929,0-8.924,3.996-8.924,8.924v21.372h144.238v-21.372
				C295.432,145.18,291.436,141.185,286.507,141.185z M254.487,163.578c-3.273,0-5.927-2.654-5.927-5.927
				c0-3.273,2.654-5.927,5.927-5.927c3.273,0,5.927,2.654,5.927,5.927C260.415,160.924,257.761,163.578,254.487,163.578z
				 M276.88,164.895c-4.001,0-7.245-3.244-7.245-7.245c0-4.001,3.243-7.245,7.245-7.245s7.245,3.244,7.245,7.245
				C284.125,161.651,280.882,164.895,276.88,164.895z"/>
			<path d="M239.845,219.823c-4.416-4.417-10.288-6.848-16.533-6.848c-6.245,0-12.117,2.432-16.533,6.848
				c-9.116,9.116-9.116,23.949,0,33.065L239.845,219.823z"/>
		</g>
	</g>
</g>
</svg>